<?xml version="1.0" encoding="iso-8859-1"?>
<!-- Generator: Adobe Illustrator 16.0.0, SVG Export Plug-In . SVG Version: 6.00 Build 0)  -->
<!DOCTYPE svg PUBLIC "-//W3C//DTD SVG 1.1//EN" "http://www.w3.org/Graphics/SVG/1.1/DTD/svg11.dtd">
<svg version="1.1" id="Capa_1" xmlns="http://www.w3.org/2000/svg" xmlns:xlink="http://www.w3.org/1999/xlink" x="0px" y="0px"
	 width="522.682px" height="522.682px" viewBox="0 0 522.682 522.682" style="enable-background:new 0 0 522.682 522.682;"
	 xml:space="preserve">
<g>
	<path d="M176.571,0.176c-16.428,0.488-33.019,4.839-48.357,13.426c-34.597,19.46-53.961,55.558-53.789,92.613
		c-3.299,52.431,39.885,166.579,81.893,242.143c0.21,0.363,0.392,0.688,0.603,1.07c0.191,0.325,0.402,0.698,0.583,1.033
		c25.044,44.103,53.865,81.846,82.792,110.504l30.218,26.556c10.146,7.773,20.139,14.353,29.816,19.431
		c31.565,19.431,72.464,21.659,107.062,2.199c15.338-8.606,27.674-20.521,36.644-34.311c4.935-6.11,5.957-14.879,1.846-22.185
		l-73.488-130.776c-3.854-6.876-11.111-10.442-18.427-10.051l-0.048-0.086c-16.888,0.306-33.995,4.676-49.83,13.569
		c-10.634,5.967-19.871,13.512-27.502,22.166c-10.538-15.062-20.742-31.193-30.447-48.214c-9.515-17.165-40.488-73.04-47.87-89.879
		c11.379-2.018,22.635-5.938,33.268-11.915c15.826-8.893,28.448-21.229,37.476-35.543l-0.01-0.039
		c4.131-6.034,4.801-14.19,0.976-21.009L196.5,10.15C192.388,2.815,184.365-0.875,176.571,0.176z"/>
	<path d="M380.454,185.545c-5.135-5.135-13.455-5.135-18.59,0l-30.982,30.982l-30.992-30.982c-5.135-5.135-13.454-5.135-18.589,0
		c-5.136,5.135-5.136,13.445,0,18.58l30.991,30.992l-30.982,30.983c-5.135,5.135-5.135,13.454,0,18.589
		c5.136,5.136,13.455,5.136,18.59,0l30.992-30.992l30.982,30.992c5.135,5.136,13.454,5.136,18.59,0
		c5.145-5.135,5.135-13.454,0-18.589l-30.982-30.983l30.982-30.982C385.589,199.009,385.589,190.69,380.454,185.545z"/>
</g>
<g>
</g>
<g>
</g>
<g>
</g>
<g>
</g>
<g>
</g>
<g>
</g>
<g>
</g>
<g>
</g>
<g>
</g>
<g>
</g>
<g>
</g>
<g>
</g>
<g>
</g>
<g>
</g>
<g>
</g>
</svg>
